<svg xmlns="http://www.w3.org/2000/svg" width="512" height="512" viewBox="0 0 512 512" version="1.1">
	<path d="M 211.500 66.788 C 207.436 67.675, 192.486 78.367, 185.580 85.325 C 178.083 92.879, 174 97.582, 174 98.663 C 174 99.020, 172.974 100.704, 171.721 102.406 C 167.920 107.566, 160 125.088, 160 128.336 C 160 129.591, 159.402 131.435, 158.672 132.434 C 157.248 134.382, 157.551 134.504, 142 125.689 C 140.075 124.598, 136.025 122.362, 133 120.720 C 129.975 119.078, 126.150 116.949, 124.500 115.989 C 121.748 114.389, 117.074 111.806, 105 105.215 C 102.525 103.864, 98.195 101.462, 95.378 99.879 C 89.684 96.678, 88 96.335, 88 98.378 C 88 99.135, 87.325 100.315, 86.500 101 C 85.675 101.685, 85 103.090, 85 104.122 C 85 105.155, 84.550 106, 84 106 C 83.450 106, 83 106.906, 83 108.014 C 83 109.121, 82.557 110.809, 82.015 111.764 C 80.573 114.306, 76.848 125.798, 75.781 131 C 73.694 141.165, 72.800 159.895, 73.860 171.220 C 75.123 184.707, 75.857 189.822, 76.912 192.500 C 78.323 196.078, 80.160 201.454, 80.671 203.500 C 81.188 205.566, 84.559 213.358, 86.081 216 C 86.556 216.825, 87.717 219.075, 88.661 221 C 89.605 222.925, 92.379 227.425, 94.827 231 C 105.544 246.656, 117.197 257.985, 132.750 267.871 C 135.637 269.707, 138 271.783, 138 272.484 C 138 273.660, 133.796 282.151, 127.099 294.500 C 124.451 299.383, 115.557 316.374, 103.020 340.500 C 99.590 347.100, 93.956 357.900, 90.500 364.500 C 87.044 371.100, 80.182 384.375, 75.251 394 C 70.320 403.625, 64.483 414.875, 62.280 419 C 57.418 428.106, 47.276 447.380, 43.193 455.273 C 41.551 458.448, 39.696 461.662, 39.070 462.415 C 38.149 463.525, 39.380 464.388, 45.554 466.958 C 49.746 468.703, 55.948 470.574, 59.338 471.116 C 62.727 471.658, 66.281 472.529, 67.236 473.051 C 69.452 474.262, 86.697 474.299, 87.442 473.094 C 87.750 472.595, 90.364 471.872, 93.251 471.487 C 100.666 470.498, 114.876 464.824, 122.245 459.910 C 130.821 454.191, 140.254 444.871, 145.938 436.500 C 152.031 427.527, 152.900 425.855, 155.552 418 L 157.747 411.500 174.123 410.885 C 183.130 410.546, 193.313 409.759, 196.750 409.135 C 200.188 408.511, 205.813 407.529, 209.250 406.953 C 214.858 406.014, 224.055 403.480, 236.985 399.310 C 239.452 398.515, 244.402 396.497, 247.985 394.826 C 251.568 393.156, 256.975 390.651, 260 389.261 C 269.680 384.811, 290.791 370.282, 301.812 360.484 C 307.690 355.258, 312.960 350.424, 313.522 349.741 C 314.084 349.059, 317.909 344.518, 322.022 339.651 C 326.135 334.784, 329.950 330.057, 330.500 329.148 C 331.050 328.239, 334.762 322.288, 338.750 315.925 C 342.738 309.561, 346 303.648, 346 302.783 C 346 301.535, 344.408 301.105, 338.250 300.691 C 327.758 299.986, 313.401 295.982, 306.935 291.956 C 305.596 291.123, 302.925 289.620, 301 288.617 C 290.987 283.398, 275.029 267.133, 269.491 256.500 C 268.058 253.750, 266.044 250.150, 265.016 248.500 C 263.988 246.850, 263.113 244.289, 263.073 242.809 C 263.033 241.329, 262.550 239.840, 262 239.500 C 261.450 239.160, 261 237.649, 261 236.141 C 261 234.633, 260.604 232.972, 260.120 232.450 C 258.491 230.693, 256.818 212.051, 257.491 203.166 C 258.116 194.926, 259.989 186.550, 262.053 182.764 C 262.574 181.809, 263 180.148, 263 179.073 C 263 177.998, 263.450 176.840, 264 176.500 C 264.550 176.160, 265 175.286, 265 174.558 C 265 173.829, 267.137 169.706, 269.750 165.394 C 275.019 156.698, 285.825 144.695, 293.510 139.003 C 300.213 134.037, 312.130 127.902, 319.500 125.621 C 322.800 124.599, 326.625 123.400, 328 122.956 C 329.375 122.511, 333.701 121.954, 337.614 121.717 C 341.526 121.480, 345.239 120.971, 345.864 120.584 C 346.539 120.167, 347 117.010, 347 112.804 L 347 105.726 337.250 106.421 C 306.933 108.581, 281.814 115.221, 257.586 127.478 C 251.583 130.515, 246.047 133, 245.285 133 C 244.522 133, 243.202 131.313, 242.352 129.250 C 241.502 127.188, 239.561 122.800, 238.039 119.500 C 236.516 116.200, 234.258 111.250, 233.021 108.500 C 231.783 105.750, 229.648 101.025, 228.276 98 C 226.905 94.975, 224.883 90.475, 223.784 88 C 222.686 85.525, 220.260 80.214, 218.393 76.197 C 216.527 72.180, 215 68.494, 215 68.006 C 215 66.716, 213.779 66.291, 211.500 66.788 M 310.395 191.901 C 299.502 198.543, 300.190 214.525, 311.606 220.052 C 325.348 226.704, 339.115 212.582, 332.493 198.627 C 328.741 190.719, 317.796 187.388, 310.395 191.901" stroke="none" fill="black" fill-rule="evenodd"/>
</svg>